<mxfile host="app.diagrams.net" modified="2020-10-28T10:54:21.377Z" agent="5.0 (Windows NT 10.0; Win64; x64) AppleWebKit/537.36 (KHTML, like Gecko) Chrome/86.0.4240.111 Safari/537.36 Edg/86.0.622.51" etag="XNx3RQ4GMayGrScCIniH" version="13.8.5" type="github">
  <diagram id="kgpKYQtTHZ0yAKxKKP6v" name="Page-1">
    <mxGraphModel dx="2119" dy="1771" grid="1" gridSize="10" guides="1" tooltips="1" connect="1" arrows="1" fold="1" page="1" pageScale="1" pageWidth="850" pageHeight="1100" math="0" shadow="0">
      <root>
        <mxCell id="0" />
        <mxCell id="1" parent="0" />
        <mxCell id="x9YALUapwDZKSQAclWl2-197" style="edgeStyle=orthogonalEdgeStyle;rounded=0;orthogonalLoop=1;jettySize=auto;html=1;exitX=1;exitY=0.5;exitDx=0;exitDy=0;entryX=0;entryY=0.5;entryDx=0;entryDy=0;fontSize=15;" edge="1" parent="1" source="x9YALUapwDZKSQAclWl2-172" target="x9YALUapwDZKSQAclWl2-175">
          <mxGeometry relative="1" as="geometry" />
        </mxCell>
        <mxCell id="x9YALUapwDZKSQAclWl2-198" value="Process Annual Inspection" style="edgeLabel;html=1;align=center;verticalAlign=middle;resizable=0;points=[];fontSize=15;" vertex="1" connectable="0" parent="x9YALUapwDZKSQAclWl2-197">
          <mxGeometry x="-0.1172" y="-2" relative="1" as="geometry">
            <mxPoint as="offset" />
          </mxGeometry>
        </mxCell>
        <mxCell id="x9YALUapwDZKSQAclWl2-172" value="&lt;h2&gt;BPLO&lt;/h2&gt;" style="rounded=1;whiteSpace=wrap;html=1;absoluteArcSize=1;arcSize=14;strokeWidth=2;" vertex="1" parent="1">
          <mxGeometry x="-600" y="-780" width="170" height="50" as="geometry" />
        </mxCell>
        <mxCell id="x9YALUapwDZKSQAclWl2-190" style="edgeStyle=orthogonalEdgeStyle;rounded=0;orthogonalLoop=1;jettySize=auto;html=1;exitX=0.5;exitY=1;exitDx=0;exitDy=0;entryX=0;entryY=0.5;entryDx=0;entryDy=0;" edge="1" parent="1" source="x9YALUapwDZKSQAclWl2-173" target="x9YALUapwDZKSQAclWl2-172">
          <mxGeometry relative="1" as="geometry" />
        </mxCell>
        <mxCell id="x9YALUapwDZKSQAclWl2-191" value="Procees Business Application" style="edgeLabel;html=1;align=center;verticalAlign=middle;resizable=0;points=[];fontSize=15;" vertex="1" connectable="0" parent="x9YALUapwDZKSQAclWl2-190">
          <mxGeometry x="-0.3812" y="26" relative="1" as="geometry">
            <mxPoint x="-9" y="-28" as="offset" />
          </mxGeometry>
        </mxCell>
        <mxCell id="x9YALUapwDZKSQAclWl2-173" value="&lt;h2&gt;CPDC&lt;/h2&gt;" style="rounded=1;whiteSpace=wrap;html=1;absoluteArcSize=1;arcSize=14;strokeWidth=2;" vertex="1" parent="1">
          <mxGeometry x="-810" y="-910" width="170" height="50" as="geometry" />
        </mxCell>
        <mxCell id="x9YALUapwDZKSQAclWl2-174" value="&lt;h2&gt;MAYORS&lt;/h2&gt;" style="rounded=1;whiteSpace=wrap;html=1;absoluteArcSize=1;arcSize=14;strokeWidth=2;" vertex="1" parent="1">
          <mxGeometry x="-770" y="-370" width="170" height="50" as="geometry" />
        </mxCell>
        <mxCell id="x9YALUapwDZKSQAclWl2-175" value="&lt;h2&gt;OBO&lt;/h2&gt;" style="rounded=1;whiteSpace=wrap;html=1;absoluteArcSize=1;arcSize=14;strokeWidth=2;" vertex="1" parent="1">
          <mxGeometry x="-170" y="-780" width="170" height="50" as="geometry" />
        </mxCell>
        <mxCell id="x9YALUapwDZKSQAclWl2-176" value="&lt;h2&gt;ENGINEERING&lt;/h2&gt;" style="rounded=1;whiteSpace=wrap;html=1;absoluteArcSize=1;arcSize=14;strokeWidth=2;" vertex="1" parent="1">
          <mxGeometry x="-250" y="-920" width="170" height="50" as="geometry" />
        </mxCell>
        <mxCell id="x9YALUapwDZKSQAclWl2-179" value="&lt;h2&gt;ASSESSORS&lt;/h2&gt;" style="rounded=1;whiteSpace=wrap;html=1;absoluteArcSize=1;arcSize=14;strokeWidth=2;" vertex="1" parent="1">
          <mxGeometry x="-760" y="-450" width="170" height="50" as="geometry" />
        </mxCell>
        <mxCell id="x9YALUapwDZKSQAclWl2-180" value="&lt;h2&gt;INFIRMARY&lt;/h2&gt;" style="rounded=1;whiteSpace=wrap;html=1;absoluteArcSize=1;arcSize=14;strokeWidth=2;" vertex="1" parent="1">
          <mxGeometry x="-690" y="-630" width="170" height="50" as="geometry" />
        </mxCell>
        <mxCell id="x9YALUapwDZKSQAclWl2-181" value="&lt;h2&gt;SANITARY&lt;/h2&gt;" style="rounded=1;whiteSpace=wrap;html=1;absoluteArcSize=1;arcSize=14;strokeWidth=2;" vertex="1" parent="1">
          <mxGeometry x="-460" y="-550" width="170" height="50" as="geometry" />
        </mxCell>
        <mxCell id="x9YALUapwDZKSQAclWl2-182" value="&lt;h2&gt;CENRO&lt;/h2&gt;" style="rounded=1;whiteSpace=wrap;html=1;absoluteArcSize=1;arcSize=14;strokeWidth=2;" vertex="1" parent="1">
          <mxGeometry x="-450" y="-450" width="170" height="50" as="geometry" />
        </mxCell>
        <mxCell id="x9YALUapwDZKSQAclWl2-184" value="&lt;h2&gt;TRAFFIC&lt;/h2&gt;" style="rounded=1;whiteSpace=wrap;html=1;absoluteArcSize=1;arcSize=14;strokeWidth=2;" vertex="1" parent="1">
          <mxGeometry x="-450" y="-390" width="170" height="50" as="geometry" />
        </mxCell>
        <mxCell id="x9YALUapwDZKSQAclWl2-185" value="&lt;h2&gt;BAC&lt;/h2&gt;" style="rounded=1;whiteSpace=wrap;html=1;absoluteArcSize=1;arcSize=14;strokeWidth=2;" vertex="1" parent="1">
          <mxGeometry x="-210" y="-400" width="170" height="50" as="geometry" />
        </mxCell>
        <mxCell id="x9YALUapwDZKSQAclWl2-186" value="&lt;h2&gt;SLAUGHTER&lt;/h2&gt;" style="rounded=1;whiteSpace=wrap;html=1;absoluteArcSize=1;arcSize=14;strokeWidth=2;" vertex="1" parent="1">
          <mxGeometry x="-270" y="-310" width="170" height="50" as="geometry" />
        </mxCell>
        <mxCell id="x9YALUapwDZKSQAclWl2-187" value="&lt;h2&gt;MARKET&lt;/h2&gt;" style="rounded=1;whiteSpace=wrap;html=1;absoluteArcSize=1;arcSize=14;strokeWidth=2;" vertex="1" parent="1">
          <mxGeometry x="-570" y="-290" width="170" height="50" as="geometry" />
        </mxCell>
        <mxCell id="x9YALUapwDZKSQAclWl2-195" style="edgeStyle=orthogonalEdgeStyle;rounded=0;orthogonalLoop=1;jettySize=auto;html=1;exitX=0.5;exitY=1;exitDx=0;exitDy=0;exitPerimeter=0;entryX=0.5;entryY=0;entryDx=0;entryDy=0;fontSize=15;" edge="1" parent="1" source="x9YALUapwDZKSQAclWl2-194" target="x9YALUapwDZKSQAclWl2-173">
          <mxGeometry relative="1" as="geometry" />
        </mxCell>
        <mxCell id="x9YALUapwDZKSQAclWl2-196" value="Process Business Zoning" style="edgeLabel;html=1;align=center;verticalAlign=middle;resizable=0;points=[];fontSize=15;" vertex="1" connectable="0" parent="x9YALUapwDZKSQAclWl2-195">
          <mxGeometry x="-0.2377" y="-2" relative="1" as="geometry">
            <mxPoint as="offset" />
          </mxGeometry>
        </mxCell>
        <mxCell id="x9YALUapwDZKSQAclWl2-194" value="START" style="strokeWidth=2;html=1;shape=mxgraph.flowchart.start_2;whiteSpace=wrap;fontSize=15;" vertex="1" parent="1">
          <mxGeometry x="-775" y="-1080" width="100" height="100" as="geometry" />
        </mxCell>
      </root>
    </mxGraphModel>
  </diagram>
</mxfile>
